<svg xmlns="http://www.w3.org/2000/svg" viewBox="0 0 512 512">
<g>
	<path fill="#bebec2" d="M507.478,240.457C453.009,145.31,360.704,82.72,255.999,82.72c-104.706,0-197.008,62.59-251.477,157.737 c-1.453,2.547-4.358,8.795-4.514,15.012c-0.172,6.232,2.436,12.418,3.764,14.762C58.147,366.112,150.809,429.28,255.999,429.28 c105.19,0,197.854-63.168,252.229-159.049c1.328-2.344,3.936-8.529,3.764-14.762C511.836,249.252,508.931,243.004,507.478,240.457z M255.999,373.295c-64.045,0-115.967-51.922-115.967-115.967s51.922-115.969,115.967-115.969 c64.045,0,115.969,51.924,115.969,115.969S320.044,373.295,255.999,373.295z"/>
	<path fill="#bebec2" d="M255.999,180.381c-12.637,0-24.399,3.342-34.912,8.746l28.336,64.217l-65.262-22.947 c-3.156,8.404-5.109,17.418-5.109,26.932c0,42.473,34.475,76.948,76.948,76.948c42.474,0,76.947-34.475,76.947-76.948 S298.474,180.381,255.999,180.381z"/>
</g>
</svg>